# 3ds Max Wavefront OBJ Exporter v0.97b - (c)2007 guruware
# File Created: 19.03.2017 11:34:57

mtllib log.mtl

#
# object Cylinder041
#

v  3.8402 2.7993 -59.2459
v  2.7675 5.3890 -59.2459
v  2.0797 5.3890 -25.8068
v  3.1158 2.7993 -26.0844
v  0.1778 6.4617 -59.2459
v  -0.4217 6.4617 -25.1366
v  -2.4119 5.3890 -59.2459
v  -2.9232 5.3890 -24.4663
v  -3.4846 2.7993 -59.2459
v  -3.9593 2.7993 -24.1887
v  -2.4119 0.2096 -59.2459
v  -2.9232 0.2096 -24.4663
v  0.1778 -0.8630 -59.2459
v  -0.4217 -0.8630 -25.1366
v  2.7675 0.2096 -59.2459
v  2.0797 0.2096 -25.8068
v  3.7589 5.3890 -4.9337
v  4.7951 2.7993 -4.6561
v  1.2575 6.4617 -5.6040
v  -1.2440 5.3890 -6.2742
v  -2.2801 2.7993 -6.5518
v  -1.2440 0.2096 -6.2742
v  1.2575 -0.8630 -5.6040
v  3.7589 0.2096 -4.9337
v  2.7281 5.3890 13.4790
v  3.7845 2.7993 13.2927
v  0.1778 6.4617 13.9286
v  -2.3725 5.3890 14.3783
v  -3.4289 2.7993 14.5646
v  -2.3725 0.2096 14.3783
v  0.1778 -0.8630 13.9286
v  2.7281 0.2096 13.4790
v  1.4570 5.3890 33.4613
v  2.5297 2.7993 33.4613
v  -1.1327 6.4617 33.4613
v  -3.7224 5.3890 33.4613
v  -4.7951 2.7993 33.4613
v  -3.7224 0.2096 33.4613
v  -1.1327 -0.8630 33.4613
v  1.4570 0.2096 33.4613
v  2.7675 5.3890 59.2459
v  3.8402 2.7993 59.2459
v  0.1778 6.4617 59.2459
v  -2.4119 5.3890 59.2459
v  -3.4846 2.7993 59.2459
v  -2.4119 0.2096 59.2459
v  0.1778 -0.8631 59.2459
v  2.7675 0.2096 59.2459
v  2.7702 5.3890 -59.2459
v  3.8429 2.7993 -59.2459
v  0.1805 2.7993 -59.2459
v  0.1805 6.4617 -59.2459
v  -2.4092 5.3890 -59.2459
v  -3.4819 2.7993 -59.2459
v  -2.4092 0.2096 -59.2459
v  0.1805 -0.8630 -59.2459
v  2.7702 0.2096 -59.2459
v  0.1778 2.7993 59.2781
# 58 vertices

vn 0.9998 -0.0004 0.0212
vn 0.7098 0.7043 0.0140
vn 0.7076 0.7063 -0.0211
vn 0.9997 -0.0005 -0.0261
vn 0.0039 1.0000 0.0006
vn -0.0139 0.9999 -0.0017
vn -0.7055 0.7086 -0.0098
vn -0.7191 0.6943 0.0281
vn -0.9999 0.0003 -0.0141
vn -0.9991 0.0006 0.0426
vn -0.7055 -0.7086 -0.0109
vn -0.7192 -0.6942 0.0274
vn 0.0046 -1.0000 0.0007
vn -0.0128 -0.9999 -0.0016
vn 0.7098 -0.7043 0.0152
vn 0.7076 -0.7063 -0.0208
vn 0.7240 0.6898 -0.0086
vn 1.0000 -0.0003 -0.0072
vn 0.0183 0.9998 -0.0045
vn -0.7079 0.7062 0.0130
vn -0.9997 0.0005 0.0247
vn -0.7081 -0.7060 0.0143
vn 0.0192 -0.9998 -0.0047
vn 0.7240 -0.6897 -0.0094
vn 0.7130 0.6998 0.0430
vn 0.9982 0.0001 0.0592
vn 0.0017 1.0000 0.0002
vn -0.7117 0.7011 -0.0450
vn -0.9980 -0.0002 -0.0634
vn -0.7116 -0.7012 -0.0442
vn 0.0013 -1.0000 0.0001
vn 0.7130 -0.6999 0.0422
vn 0.7001 0.7140 0.0042
vn 1.0000 0.0002 0.0061
vn -0.0141 0.9999 -0.0005
vn -0.7145 0.6996 -0.0068
vn -0.9999 -0.0002 -0.0102
vn -0.7145 -0.6996 -0.0075
vn -0.0146 -0.9999 -0.0006
vn 0.7002 -0.7140 0.0048
vn 0.7127 0.7005 -0.0362
vn 0.9987 -0.0000 -0.0508
vn 0.0124 0.9999 -0.0006
vn -0.7004 0.7129 0.0356
vn -0.9987 -0.0000 0.0508
vn -0.7004 -0.7129 0.0356
vn 0.0124 -0.9999 -0.0006
vn 0.7127 -0.7005 -0.0362
vn 0.0000 0.0000 -1.0000
vn 0.0088 0.0000 1.0000
vn 0.0062 0.0062 1.0000
vn -0.0000 0.0000 1.0000
vn -0.0000 0.0088 1.0000
vn -0.0062 0.0062 1.0000
vn -0.0088 0.0000 1.0000
vn -0.0062 -0.0062 1.0000
vn -0.0000 -0.0088 1.0000
vn 0.0062 -0.0062 1.0000
# 58 vertex normals

vt -0.7104 0.8089 0.0000
vt -0.7104 0.7423 0.0000
vt 0.1494 0.7423 0.0000
vt 0.1422 0.8089 0.0000
vt -0.7104 0.4709 0.0000
vt -0.7104 0.4044 0.0000
vt 0.1666 0.3889 0.0000
vt 0.1494 0.4533 0.0000
vt -0.7104 0.3378 0.0000
vt 0.1839 0.3246 0.0000
vt -0.7104 0.6859 0.0000
vt -0.7104 0.6194 0.0000
vt 0.1910 0.6194 0.0000
vt 0.1839 0.6859 0.0000
vt -0.7104 0.5528 0.0000
vt 0.1839 0.5528 0.0000
vt -0.7104 0.2141 0.0000
vt -0.7104 0.1475 0.0000
vt 0.1666 0.1629 0.0000
vt 0.1839 0.2272 0.0000
vt -0.7104 0.0809 0.0000
vt 0.1494 0.0986 0.0000
vt -0.7104 0.8754 0.0000
vt 0.1494 0.8754 0.0000
vt 0.6861 0.7423 0.0000
vt 0.6932 0.8089 0.0000
vt 0.6688 0.4321 0.0000
vt 0.6861 0.4964 0.0000
vt 0.6516 0.3678 0.0000
vt 0.6445 0.6194 0.0000
vt 0.6516 0.6859 0.0000
vt 0.6516 0.5528 0.0000
vt 0.6688 0.1197 0.0000
vt 0.6516 0.1840 0.0000
vt 0.6861 0.0554 0.0000
vt 0.6861 0.8754 0.0000
vt 1.1595 0.7423 0.0000
vt 1.1547 0.8089 0.0000
vt 1.1711 0.4044 0.0000
vt 1.1595 0.4699 0.0000
vt 1.1826 0.3388 0.0000
vt 1.1874 0.6194 0.0000
vt 1.1826 0.6859 0.0000
vt 1.1826 0.5528 0.0000
vt 1.1711 0.1475 0.0000
vt 1.1826 0.2130 0.0000
vt 1.1595 0.0819 0.0000
vt 1.1595 0.8754 0.0000
vt 1.6733 0.7423 0.0000
vt 1.6733 0.8089 0.0000
vt 1.6733 0.3707 0.0000
vt 1.6733 0.4373 0.0000
vt 1.6733 0.3041 0.0000
vt 1.6733 0.6194 0.0000
vt 1.6733 0.6859 0.0000
vt 1.6733 0.5528 0.0000
vt 1.6733 0.1812 0.0000
vt 1.6733 0.2477 0.0000
vt 1.6733 0.1146 0.0000
vt 1.6733 0.8754 0.0000
vt 2.3362 0.7423 0.0000
vt 2.3362 0.8089 0.0000
vt 2.3362 0.4044 0.0000
vt 2.3362 0.4709 0.0000
vt 2.3362 0.3378 0.0000
vt 2.3362 0.6194 0.0000
vt 2.3362 0.6859 0.0000
vt 2.3362 0.5528 0.0000
vt 2.3362 0.1475 0.0000
vt 2.3362 0.2141 0.0000
vt 2.3362 0.0809 0.0000
vt 2.3362 0.8754 0.0000
vt 0.8419 0.7069 0.0000
vt 0.6388 0.9900 0.0000
vt 0.5000 0.5000 0.0000
vt 0.8447 0.3026 0.0000
vt 0.6456 0.0140 0.0000
vt 0.3612 0.0100 0.0000
vt 0.1581 0.2931 0.0000
vt 0.1553 0.6974 0.0000
vt 0.3544 0.9860 0.0000
vt 0.6890 1.0613 0.0000
vt 0.3654 1.0567 0.0000
vt 0.5310 0.4917 0.0000
vt 0.1388 0.7211 0.0000
vt 0.1420 0.2511 0.0000
vt 0.3730 -0.0779 0.0000
vt 0.6966 -0.0733 0.0000
vt 0.9232 0.2623 0.0000
vt 0.9201 0.7322 0.0000
# 90 texture coords

g Cylinder041
usemtl Material__127
s 8
f 1/1/1 2/2/2 3/3/3 4/4/4 
f 2/5/2 5/6/5 6/7/6 3/8/3 
f 5/6/5 7/9/7 8/10/8 6/7/6 
f 7/11/7 9/12/9 10/13/10 8/14/8 
f 9/12/9 11/15/11 12/16/12 10/13/10 
f 11/17/11 13/18/13 14/19/14 12/20/12 
f 13/18/13 15/21/15 16/22/16 14/19/14 
f 15/23/15 1/1/1 4/4/4 16/24/16 
f 4/4/4 3/3/3 17/25/17 18/26/18 
f 3/8/3 6/7/6 19/27/19 17/28/17 
f 6/7/6 8/10/8 20/29/20 19/27/19 
f 8/14/8 10/13/10 21/30/21 20/31/20 
f 10/13/10 12/16/12 22/32/22 21/30/21 
f 12/20/12 14/19/14 23/33/23 22/34/22 
f 14/19/14 16/22/16 24/35/24 23/33/23 
f 16/24/16 4/4/4 18/26/18 24/36/24 
f 18/26/18 17/25/17 25/37/25 26/38/26 
f 17/28/17 19/27/19 27/39/27 25/40/25 
f 19/27/19 20/29/20 28/41/28 27/39/27 
f 20/31/20 21/30/21 29/42/29 28/43/28 
f 21/30/21 22/32/22 30/44/30 29/42/29 
f 22/34/22 23/33/23 31/45/31 30/46/30 
f 23/33/23 24/35/24 32/47/32 31/45/31 
f 24/36/24 18/26/18 26/38/26 32/48/32 
f 26/38/26 25/37/25 33/49/33 34/50/34 
f 25/40/25 27/39/27 35/51/35 33/52/33 
f 27/39/27 28/41/28 36/53/36 35/51/35 
f 28/43/28 29/42/29 37/54/37 36/55/36 
f 29/42/29 30/44/30 38/56/38 37/54/37 
f 30/46/30 31/45/31 39/57/39 38/58/38 
f 31/45/31 32/47/32 40/59/40 39/57/39 
f 32/48/32 26/38/26 34/50/34 40/60/40 
f 34/50/34 33/49/33 41/61/41 42/62/42 
f 33/52/33 35/51/35 43/63/43 41/64/41 
f 35/51/35 36/53/36 44/65/44 43/63/43 
f 36/55/36 37/54/37 45/66/45 44/67/44 
f 37/54/37 38/56/38 46/68/46 45/66/45 
f 38/58/38 39/57/39 47/69/47 46/70/46 
f 39/57/39 40/59/40 48/71/48 47/69/47 
f 40/60/40 34/50/34 42/62/42 48/72/48 
usemtl Material__47
s 1
f 49/73/49 50/74/49 51/75/49 
f 52/76/49 49/73/49 51/75/49 
f 53/77/49 52/76/49 51/75/49 
f 54/78/49 53/77/49 51/75/49 
f 55/79/49 54/78/49 51/75/49 
f 56/80/49 55/79/49 51/75/49 
f 57/81/49 56/80/49 51/75/49 
f 50/74/49 57/81/49 51/75/49 
f 42/82/50 41/83/51 58/84/52 
f 41/83/51 43/85/53 58/84/52 
f 43/85/53 44/86/54 58/84/52 
f 44/86/54 45/87/55 58/84/52 
f 45/87/55 46/88/56 58/84/52 
f 46/88/56 47/89/57 58/84/52 
f 47/89/57 48/90/58 58/84/52 
f 48/90/58 42/82/50 58/84/52 
# 40 polygons - 16 triangles

#
# object Cylinder042
#

v  -4.1405 2.7993 -59.2459
v  -5.2132 5.3890 -59.2459
v  -5.9010 5.3890 -25.8068
v  -4.8649 2.7993 -26.0844
v  -7.8029 6.4617 -59.2459
v  -8.4024 6.4617 -25.1366
v  -10.3926 5.3890 -59.2459
v  -10.9039 5.3890 -24.4663
v  -11.4653 2.7993 -59.2459
v  -11.9400 2.7993 -24.1887
v  -10.3926 0.2096 -59.2459
v  -10.9039 0.2096 -24.4663
v  -7.8029 -0.8630 -59.2459
v  -8.4024 -0.8630 -25.1366
v  -5.2132 0.2096 -59.2459
v  -5.9010 0.2096 -25.8068
v  -4.2218 5.3890 -4.9337
v  -3.1856 2.7993 -4.6561
v  -6.7232 6.4617 -5.6040
v  -9.2246 5.3890 -6.2742
v  -10.2608 2.7993 -6.5518
v  -9.2246 0.2096 -6.2742
v  -6.7232 -0.8630 -5.6040
v  -4.2218 0.2096 -4.9337
v  -5.2526 5.3890 13.4790
v  -4.1962 2.7993 13.2927
v  -7.8029 6.4617 13.9286
v  -10.3532 5.3890 14.3783
v  -11.4096 2.7993 14.5646
v  -10.3532 0.2096 14.3783
v  -7.8029 -0.8630 13.9286
v  -5.2526 0.2096 13.4790
v  -6.5237 5.3890 33.4613
v  -5.4510 2.7993 33.4613
v  -9.1134 6.4617 33.4613
v  -11.7031 5.3890 33.4613
v  -12.7757 2.7993 33.4613
v  -11.7031 0.2096 33.4613
v  -9.1134 -0.8630 33.4613
v  -6.5237 0.2096 33.4613
v  -5.2132 5.3890 59.2459
v  -4.1405 2.7993 59.2459
v  -7.8029 6.4617 59.2459
v  -10.3926 5.3890 59.2459
v  -11.4653 2.7993 59.2459
v  -10.3926 0.2096 59.2459
v  -7.8029 -0.8631 59.2459
v  -5.2132 0.2096 59.2459
v  -5.2105 5.3890 -59.2459
v  -4.1378 2.7993 -59.2459
v  -7.8002 2.7993 -59.2459
v  -7.8002 6.4617 -59.2459
v  -10.3899 5.3890 -59.2459
v  -11.4626 2.7993 -59.2459
v  -10.3899 0.2096 -59.2459
v  -7.8002 -0.8630 -59.2459
v  -5.2105 0.2096 -59.2459
v  -7.8029 2.7993 59.2781
# 58 vertices

vn 0.9998 -0.0004 0.0212
vn 0.7098 0.7043 0.0140
vn 0.7076 0.7063 -0.0211
vn 0.9997 -0.0005 -0.0261
vn 0.0039 1.0000 0.0006
vn -0.0139 0.9999 -0.0017
vn -0.7055 0.7086 -0.0098
vn -0.7191 0.6943 0.0281
vn -0.9999 0.0003 -0.0141
vn -0.9991 0.0006 0.0426
vn -0.7055 -0.7086 -0.0109
vn -0.7192 -0.6942 0.0274
vn 0.0046 -1.0000 0.0007
vn -0.0128 -0.9999 -0.0016
vn 0.7098 -0.7043 0.0152
vn 0.7076 -0.7063 -0.0208
vn 0.7240 0.6898 -0.0086
vn 1.0000 -0.0003 -0.0072
vn 0.0183 0.9998 -0.0045
vn -0.7079 0.7062 0.0130
vn -0.9997 0.0005 0.0247
vn -0.7081 -0.7060 0.0143
vn 0.0192 -0.9998 -0.0047
vn 0.7240 -0.6897 -0.0094
vn 0.7130 0.6998 0.0430
vn 0.9982 0.0001 0.0592
vn 0.0017 1.0000 0.0002
vn -0.7117 0.7011 -0.0450
vn -0.9980 -0.0002 -0.0634
vn -0.7116 -0.7012 -0.0442
vn 0.0013 -1.0000 0.0001
vn 0.7130 -0.6999 0.0422
vn 0.7001 0.7140 0.0042
vn 1.0000 0.0002 0.0061
vn -0.0141 0.9999 -0.0005
vn -0.7145 0.6996 -0.0068
vn -0.9999 -0.0002 -0.0102
vn -0.7145 -0.6996 -0.0075
vn -0.0146 -0.9999 -0.0006
vn 0.7002 -0.7140 0.0048
vn 0.7127 0.7005 -0.0362
vn 0.9987 -0.0000 -0.0508
vn 0.0124 0.9999 -0.0006
vn -0.7004 0.7129 0.0356
vn -0.9987 -0.0000 0.0508
vn -0.7004 -0.7129 0.0356
vn 0.0124 -0.9999 -0.0006
vn 0.7127 -0.7005 -0.0362
vn 0.0000 0.0000 -1.0000
vn 0.0088 0.0000 1.0000
vn 0.0062 0.0062 1.0000
vn -0.0000 0.0000 1.0000
vn -0.0000 0.0088 1.0000
vn -0.0062 0.0062 1.0000
vn -0.0088 0.0000 1.0000
vn -0.0062 -0.0062 1.0000
vn -0.0000 -0.0088 1.0000
vn 0.0062 -0.0062 1.0000
# 58 vertex normals

vt -0.7104 0.8089 0.0000
vt -0.7104 0.7423 0.0000
vt 0.1494 0.7423 0.0000
vt 0.1422 0.8089 0.0000
vt -0.7104 0.4709 0.0000
vt -0.7104 0.4044 0.0000
vt 0.1666 0.3889 0.0000
vt 0.1494 0.4533 0.0000
vt -0.7104 0.3378 0.0000
vt 0.1839 0.3246 0.0000
vt -0.7104 0.6859 0.0000
vt -0.7104 0.6194 0.0000
vt 0.1910 0.6194 0.0000
vt 0.1839 0.6859 0.0000
vt -0.7104 0.5528 0.0000
vt 0.1839 0.5528 0.0000
vt -0.7104 0.2141 0.0000
vt -0.7104 0.1475 0.0000
vt 0.1666 0.1629 0.0000
vt 0.1839 0.2272 0.0000
vt -0.7104 0.0809 0.0000
vt 0.1494 0.0986 0.0000
vt -0.7104 0.8754 0.0000
vt 0.1494 0.8754 0.0000
vt 0.6861 0.7423 0.0000
vt 0.6932 0.8089 0.0000
vt 0.6688 0.4321 0.0000
vt 0.6861 0.4964 0.0000
vt 0.6516 0.3678 0.0000
vt 0.6445 0.6194 0.0000
vt 0.6516 0.6859 0.0000
vt 0.6516 0.5528 0.0000
vt 0.6688 0.1197 0.0000
vt 0.6516 0.1840 0.0000
vt 0.6861 0.0554 0.0000
vt 0.6861 0.8754 0.0000
vt 1.1595 0.7423 0.0000
vt 1.1547 0.8089 0.0000
vt 1.1711 0.4044 0.0000
vt 1.1595 0.4699 0.0000
vt 1.1826 0.3388 0.0000
vt 1.1874 0.6194 0.0000
vt 1.1826 0.6859 0.0000
vt 1.1826 0.5528 0.0000
vt 1.1711 0.1475 0.0000
vt 1.1826 0.2130 0.0000
vt 1.1595 0.0819 0.0000
vt 1.1595 0.8754 0.0000
vt 1.6733 0.7423 0.0000
vt 1.6733 0.8089 0.0000
vt 1.6733 0.3707 0.0000
vt 1.6733 0.4373 0.0000
vt 1.6733 0.3041 0.0000
vt 1.6733 0.6194 0.0000
vt 1.6733 0.6859 0.0000
vt 1.6733 0.5528 0.0000
vt 1.6733 0.1812 0.0000
vt 1.6733 0.2477 0.0000
vt 1.6733 0.1146 0.0000
vt 1.6733 0.8754 0.0000
vt 2.3362 0.7423 0.0000
vt 2.3362 0.8089 0.0000
vt 2.3362 0.4044 0.0000
vt 2.3362 0.4709 0.0000
vt 2.3362 0.3378 0.0000
vt 2.3362 0.6194 0.0000
vt 2.3362 0.6859 0.0000
vt 2.3362 0.5528 0.0000
vt 2.3362 0.1475 0.0000
vt 2.3362 0.2141 0.0000
vt 2.3362 0.0809 0.0000
vt 2.3362 0.8754 0.0000
vt 0.8419 0.7069 0.0000
vt 0.6388 0.9900 0.0000
vt 0.5000 0.5000 0.0000
vt 0.8447 0.3026 0.0000
vt 0.6456 0.0140 0.0000
vt 0.3612 0.0100 0.0000
vt 0.1581 0.2931 0.0000
vt 0.1553 0.6974 0.0000
vt 0.3544 0.9860 0.0000
vt 0.6890 1.0613 0.0000
vt 0.3654 1.0567 0.0000
vt 0.5310 0.4917 0.0000
vt 0.1388 0.7211 0.0000
vt 0.1420 0.2511 0.0000
vt 0.3730 -0.0779 0.0000
vt 0.6966 -0.0733 0.0000
vt 0.9232 0.2623 0.0000
vt 0.9201 0.7322 0.0000
# 90 texture coords

g Cylinder042
usemtl Material__127
s 8
f 59/91/59 60/92/60 61/93/61 62/94/62 
f 60/95/60 63/96/63 64/97/64 61/98/61 
f 63/96/63 65/99/65 66/100/66 64/97/64 
f 65/101/65 67/102/67 68/103/68 66/104/66 
f 67/102/67 69/105/69 70/106/70 68/103/68 
f 69/107/69 71/108/71 72/109/72 70/110/70 
f 71/108/71 73/111/73 74/112/74 72/109/72 
f 73/113/73 59/91/59 62/94/62 74/114/74 
f 62/94/62 61/93/61 75/115/75 76/116/76 
f 61/98/61 64/97/64 77/117/77 75/118/75 
f 64/97/64 66/100/66 78/119/78 77/117/77 
f 66/104/66 68/103/68 79/120/79 78/121/78 
f 68/103/68 70/106/70 80/122/80 79/120/79 
f 70/110/70 72/109/72 81/123/81 80/124/80 
f 72/109/72 74/112/74 82/125/82 81/123/81 
f 74/114/74 62/94/62 76/116/76 82/126/82 
f 76/116/76 75/115/75 83/127/83 84/128/84 
f 75/118/75 77/117/77 85/129/85 83/130/83 
f 77/117/77 78/119/78 86/131/86 85/129/85 
f 78/121/78 79/120/79 87/132/87 86/133/86 
f 79/120/79 80/122/80 88/134/88 87/132/87 
f 80/124/80 81/123/81 89/135/89 88/136/88 
f 81/123/81 82/125/82 90/137/90 89/135/89 
f 82/126/82 76/116/76 84/128/84 90/138/90 
f 84/128/84 83/127/83 91/139/91 92/140/92 
f 83/130/83 85/129/85 93/141/93 91/142/91 
f 85/129/85 86/131/86 94/143/94 93/141/93 
f 86/133/86 87/132/87 95/144/95 94/145/94 
f 87/132/87 88/134/88 96/146/96 95/144/95 
f 88/136/88 89/135/89 97/147/97 96/148/96 
f 89/135/89 90/137/90 98/149/98 97/147/97 
f 90/138/90 84/128/84 92/140/92 98/150/98 
f 92/140/92 91/139/91 99/151/99 100/152/100 
f 91/142/91 93/141/93 101/153/101 99/154/99 
f 93/141/93 94/143/94 102/155/102 101/153/101 
f 94/145/94 95/144/95 103/156/103 102/157/102 
f 95/144/95 96/146/96 104/158/104 103/156/103 
f 96/148/96 97/147/97 105/159/105 104/160/104 
f 97/147/97 98/149/98 106/161/106 105/159/105 
f 98/150/98 92/140/92 100/152/100 106/162/106 
usemtl Material__47
s 1
f 107/163/107 108/164/107 109/165/107 
f 110/166/107 107/163/107 109/165/107 
f 111/167/107 110/166/107 109/165/107 
f 112/168/107 111/167/107 109/165/107 
f 113/169/107 112/168/107 109/165/107 
f 114/170/107 113/169/107 109/165/107 
f 115/171/107 114/170/107 109/165/107 
f 108/164/107 115/171/107 109/165/107 
f 100/172/108 99/173/109 116/174/110 
f 99/173/109 101/175/111 116/174/110 
f 101/175/111 102/176/112 116/174/110 
f 102/176/112 103/177/113 116/174/110 
f 103/177/113 104/178/114 116/174/110 
f 104/178/114 105/179/115 116/174/110 
f 105/179/115 106/180/116 116/174/110 
f 106/180/116 100/172/108 116/174/110 
# 40 polygons - 16 triangles

#
# object Cylinder043
#

v  -0.8622 9.0992 -59.2459
v  -1.9348 11.6889 -59.2459
v  -2.6226 11.6889 -25.8068
v  -1.5865 9.0992 -26.0844
v  -4.5245 12.7616 -59.2459
v  -5.1240 12.7616 -25.1366
v  -7.1142 11.6889 -59.2459
v  -7.6255 11.6889 -24.4663
v  -8.1869 9.0992 -59.2459
v  -8.6616 9.0992 -24.1887
v  -7.1142 6.5095 -59.2459
v  -7.6255 6.5095 -24.4663
v  -4.5245 5.4369 -59.2459
v  -5.1240 5.4369 -25.1366
v  -1.9348 6.5095 -59.2459
v  -2.6226 6.5095 -25.8068
v  -0.9434 11.6889 -4.9337
v  0.0927 9.0992 -4.6561
v  -3.4448 12.7616 -5.6040
v  -5.9463 11.6889 -6.2742
v  -6.9824 9.0992 -6.5518
v  -5.9463 6.5095 -6.2742
v  -3.4448 5.4369 -5.6040
v  -0.9434 6.5095 -4.9337
v  -1.9742 11.6889 13.4790
v  -0.9178 9.0992 13.2927
v  -4.5245 12.7616 13.9286
v  -7.0749 11.6889 14.3783
v  -8.1312 9.0992 14.5646
v  -7.0749 6.5095 14.3783
v  -4.5245 5.4369 13.9286
v  -1.9742 6.5095 13.4790
v  -3.2453 11.6889 33.4613
v  -2.1726 9.0992 33.4613
v  -5.8350 12.7616 33.4613
v  -8.4247 11.6889 33.4613
v  -9.4974 9.0992 33.4613
v  -8.4247 6.5095 33.4613
v  -5.8350 5.4369 33.4613
v  -3.2453 6.5095 33.4613
v  -1.9348 11.6889 59.2459
v  -0.8622 9.0992 59.2459
v  -4.5245 12.7616 59.2459
v  -7.1142 11.6889 59.2459
v  -8.1869 9.0992 59.2459
v  -7.1142 6.5095 59.2459
v  -4.5245 5.4368 59.2459
v  -1.9348 6.5095 59.2459
v  -1.9321 11.6889 -59.2459
v  -0.8594 9.0992 -59.2459
v  -4.5218 9.0992 -59.2459
v  -4.5218 12.7616 -59.2459
v  -7.1115 11.6889 -59.2459
v  -8.1842 9.0992 -59.2459
v  -7.1115 6.5095 -59.2459
v  -4.5218 5.4369 -59.2459
v  -1.9321 6.5095 -59.2459
v  -0.8621 9.0992 59.2459
v  -4.5245 9.0992 59.2781
# 59 vertices

vn 0.9998 -0.0004 0.0212
vn 0.7098 0.7043 0.0140
vn 0.7076 0.7063 -0.0211
vn 0.9997 -0.0005 -0.0261
vn 0.0039 1.0000 0.0006
vn -0.0139 0.9999 -0.0017
vn -0.7055 0.7086 -0.0098
vn -0.7191 0.6943 0.0281
vn -0.9999 0.0003 -0.0141
vn -0.9991 0.0006 0.0426
vn -0.7055 -0.7086 -0.0109
vn -0.7192 -0.6942 0.0274
vn 0.0046 -1.0000 0.0007
vn -0.0128 -0.9999 -0.0016
vn 0.7098 -0.7043 0.0152
vn 0.7076 -0.7063 -0.0208
vn 0.7240 0.6898 -0.0086
vn 1.0000 -0.0003 -0.0072
vn 0.0183 0.9998 -0.0045
vn -0.7079 0.7062 0.0130
vn -0.9997 0.0005 0.0247
vn -0.7081 -0.7060 0.0143
vn 0.0192 -0.9998 -0.0047
vn 0.7240 -0.6897 -0.0094
vn 0.7130 0.6998 0.0430
vn 0.9982 0.0001 0.0592
vn 0.0017 1.0000 0.0002
vn -0.7117 0.7011 -0.0450
vn -0.9980 -0.0002 -0.0634
vn -0.7116 -0.7012 -0.0442
vn 0.0013 -1.0000 0.0001
vn 0.7130 -0.6999 0.0422
vn 0.7001 0.7140 0.0042
vn 1.0000 0.0002 0.0061
vn -0.0141 0.9999 -0.0005
vn -0.7145 0.6996 -0.0068
vn -0.9999 -0.0002 -0.0102
vn -0.7145 -0.6996 -0.0075
vn -0.0146 -0.9999 -0.0006
vn 0.7002 -0.7140 0.0048
vn 0.7127 0.7005 -0.0362
vn 0.9987 -0.0000 -0.0508
vn 0.0124 0.9999 -0.0006
vn -0.7004 0.7129 0.0356
vn -0.9987 -0.0000 0.0508
vn -0.7004 -0.7129 0.0356
vn 0.0124 -0.9999 -0.0006
vn 0.7127 -0.7005 -0.0362
vn 0.0000 0.0000 -1.0000
vn 0.0088 0.0000 1.0000
vn 0.0062 0.0062 1.0000
vn -0.0000 0.0000 1.0000
vn -0.0000 0.0088 1.0000
vn -0.0062 0.0062 1.0000
vn -0.0088 0.0000 1.0000
vn -0.0062 -0.0062 1.0000
vn -0.0000 -0.0088 1.0000
vn 0.0062 -0.0062 1.0000
# 58 vertex normals

vt -0.7104 0.8089 0.0000
vt -0.7104 0.7423 0.0000
vt 0.1494 0.7423 0.0000
vt 0.1422 0.8089 0.0000
vt -0.7104 0.4709 0.0000
vt -0.7104 0.4044 0.0000
vt 0.1666 0.3889 0.0000
vt 0.1494 0.4533 0.0000
vt -0.7104 0.3378 0.0000
vt 0.1839 0.3246 0.0000
vt -0.7104 0.6859 0.0000
vt -0.7104 0.6194 0.0000
vt 0.1910 0.6194 0.0000
vt 0.1839 0.6859 0.0000
vt -0.7104 0.5528 0.0000
vt 0.1839 0.5528 0.0000
vt -0.7104 0.2141 0.0000
vt -0.7104 0.1475 0.0000
vt 0.1666 0.1629 0.0000
vt 0.1839 0.2272 0.0000
vt -0.7104 0.0809 0.0000
vt 0.1494 0.0986 0.0000
vt -0.7104 0.8754 0.0000
vt 0.1494 0.8754 0.0000
vt 0.6861 0.7423 0.0000
vt 0.6932 0.8089 0.0000
vt 0.6688 0.4321 0.0000
vt 0.6861 0.4964 0.0000
vt 0.6516 0.3678 0.0000
vt 0.6445 0.6194 0.0000
vt 0.6516 0.6859 0.0000
vt 0.6516 0.5528 0.0000
vt 0.6688 0.1197 0.0000
vt 0.6516 0.1840 0.0000
vt 0.6861 0.0554 0.0000
vt 0.6861 0.8754 0.0000
vt 1.1595 0.7423 0.0000
vt 1.1547 0.8089 0.0000
vt 1.1711 0.4044 0.0000
vt 1.1595 0.4699 0.0000
vt 1.1826 0.3388 0.0000
vt 1.1874 0.6194 0.0000
vt 1.1826 0.6859 0.0000
vt 1.1826 0.5528 0.0000
vt 1.1711 0.1475 0.0000
vt 1.1826 0.2130 0.0000
vt 1.1595 0.0819 0.0000
vt 1.1595 0.8754 0.0000
vt 1.6733 0.7423 0.0000
vt 1.6733 0.8089 0.0000
vt 1.6733 0.3707 0.0000
vt 1.6733 0.4373 0.0000
vt 1.6733 0.3041 0.0000
vt 1.6733 0.6194 0.0000
vt 1.6733 0.6859 0.0000
vt 1.6733 0.5528 0.0000
vt 1.6733 0.1812 0.0000
vt 1.6733 0.2477 0.0000
vt 1.6733 0.1146 0.0000
vt 1.6733 0.8754 0.0000
vt 2.3362 0.7423 0.0000
vt 2.3362 0.8089 0.0000
vt 2.3362 0.4044 0.0000
vt 2.3362 0.4709 0.0000
vt 2.3362 0.3378 0.0000
vt 2.3362 0.6194 0.0000
vt 2.3362 0.6859 0.0000
vt 2.3362 0.5528 0.0000
vt 2.3362 0.1475 0.0000
vt 2.3362 0.2141 0.0000
vt 2.3362 0.0809 0.0000
vt 2.3362 0.8754 0.0000
vt 0.8419 0.7069 0.0000
vt 0.6388 0.9900 0.0000
vt 0.5000 0.5000 0.0000
vt 0.8447 0.3026 0.0000
vt 0.6456 0.0140 0.0000
vt 0.3612 0.0100 0.0000
vt 0.1581 0.2931 0.0000
vt 0.1553 0.6974 0.0000
vt 0.3544 0.9860 0.0000
vt 0.6890 1.0613 0.0000
vt 0.3654 1.0567 0.0000
vt 0.5310 0.4917 0.0000
vt 0.1388 0.7211 0.0000
vt 0.1420 0.2511 0.0000
vt 0.3730 -0.0779 0.0000
vt 0.6966 -0.0733 0.0000
vt 0.9232 0.2623 0.0000
vt 0.9201 0.7322 0.0000
# 90 texture coords

g Cylinder043
usemtl Material__127
s 8
f 117/181/117 118/182/118 119/183/119 120/184/120 
f 118/185/118 121/186/121 122/187/122 119/188/119 
f 121/186/121 123/189/123 124/190/124 122/187/122 
f 123/191/123 125/192/125 126/193/126 124/194/124 
f 125/192/125 127/195/127 128/196/128 126/193/126 
f 127/197/127 129/198/129 130/199/130 128/200/128 
f 129/198/129 131/201/131 132/202/132 130/199/130 
f 131/203/131 117/181/117 120/184/120 132/204/132 
f 120/184/120 119/183/119 133/205/133 134/206/134 
f 119/188/119 122/187/122 135/207/135 133/208/133 
f 122/187/122 124/190/124 136/209/136 135/207/135 
f 124/194/124 126/193/126 137/210/137 136/211/136 
f 126/193/126 128/196/128 138/212/138 137/210/137 
f 128/200/128 130/199/130 139/213/139 138/214/138 
f 130/199/130 132/202/132 140/215/140 139/213/139 
f 132/204/132 120/184/120 134/206/134 140/216/140 
f 134/206/134 133/205/133 141/217/141 142/218/142 
f 133/208/133 135/207/135 143/219/143 141/220/141 
f 135/207/135 136/209/136 144/221/144 143/219/143 
f 136/211/136 137/210/137 145/222/145 144/223/144 
f 137/210/137 138/212/138 146/224/146 145/222/145 
f 138/214/138 139/213/139 147/225/147 146/226/146 
f 139/213/139 140/215/140 148/227/148 147/225/147 
f 140/216/140 134/206/134 142/218/142 148/228/148 
f 142/218/142 141/217/141 149/229/149 150/230/150 
f 141/220/141 143/219/143 151/231/151 149/232/149 
f 143/219/143 144/221/144 152/233/152 151/231/151 
f 144/223/144 145/222/145 153/234/153 152/235/152 
f 145/222/145 146/224/146 154/236/154 153/234/153 
f 146/226/146 147/225/147 155/237/155 154/238/154 
f 147/225/147 148/227/148 156/239/156 155/237/155 
f 148/228/148 142/218/142 150/230/150 156/240/156 
f 150/230/150 149/229/149 157/241/157 158/242/158 
f 149/232/149 151/231/151 159/243/159 157/244/157 
f 151/231/151 152/233/152 160/245/160 159/243/159 
f 152/235/152 153/234/153 161/246/161 160/247/160 
f 153/234/153 154/236/154 162/248/162 161/246/161 
f 154/238/154 155/237/155 163/249/163 162/250/162 
f 155/237/155 156/239/156 164/251/164 163/249/163 
f 156/240/156 150/230/150 158/242/158 164/252/164 
usemtl Material__47
s 1
f 165/253/165 166/254/165 167/255/165 
f 168/256/165 165/253/165 167/255/165 
f 169/257/165 168/256/165 167/255/165 
f 170/258/165 169/257/165 167/255/165 
f 171/259/165 170/258/165 167/255/165 
f 172/260/165 171/259/165 167/255/165 
f 173/261/165 172/260/165 167/255/165 
f 166/254/165 173/261/165 167/255/165 
f 174/262/166 157/263/167 175/264/168 
f 157/263/167 159/265/169 175/264/168 
f 159/265/169 160/266/170 175/264/168 
f 160/266/170 161/267/171 175/264/168 
f 161/267/171 162/268/172 175/264/168 
f 162/268/172 163/269/173 175/264/168 
f 163/269/173 164/270/174 175/264/168 
f 164/270/174 174/262/166 175/264/168 
# 40 polygons - 16 triangles

